# xmcd CD database file
#
# Track frame offsets:
#	150
#	2071
#	15943
#	33726
#	53008
#	84318
#	113549
#	132614
#	158012
#	179371
#	197163
#	208064
#	236638
#	255294
#	275272
#
# Disc length: 3893 seconds
#
# Revision: 3
# Processed by: cddbd v1.5.2PL0 Copyright (c) Steve Scherf et al.
# Submitted via: CDex 1.51
#
DISCID=bc0f330f
DTITLE=The Crabb Family - Live At Brooklyn Tabernacle
DYEAR=2005
DGENRE=Southern Gospel
TTITLE0=Introduction by Pastor Cymbala
TTITLE1=Greater Is He
TTITLE2=You Let The Light Back In
TTITLE3=His Grace
TTITLE4=Don't You Wanna Go?
TTITLE5=Holy Ground
TTITLE6=Please Come Down To Me
TTITLE7=Through The Fire (with Brooklyn Tabernacle Choir)
TTITLE8=Amazing Grace
TTITLE9=Please Forgive Me
TTITLE10=Gerald Crabb testimony
TTITLE11=Reason That I'm Standing
TTITLE12=Something's Going On In The Graveyard - (with Gerald Crabb)
TTITLE13=Cross
TTITLE14=Lamb, Lion and King
EXTD=YEAR: 2005
EXTT0=
EXTT1=
EXTT2=
EXTT3=
EXTT4=
EXTT5=
EXTT6=
EXTT7=
EXTT8=
EXTT9=
EXTT10=
EXTT11=
EXTT12=
EXTT13=
EXTT14=
PLAYORDER=
